<svg width="257" height="222" viewBox="0 0 257 222" fill="none" xmlns="http://www.w3.org/2000/svg">
<path opacity="0.1" d="M150.461 37.5145C134.228 36.9003 118.764 31.1971 104 24.9561C89.2367 18.7152 74.6135 11.7999 58.7687 8.49374C48.5776 6.367 36.9217 6.0667 28.7121 12.0128C20.8086 17.746 18.2552 27.6152 16.8831 36.7829C15.8497 43.6791 15.2427 50.9356 18.0746 57.3923C20.0385 61.8751 23.5276 65.6426 25.938 69.9507C34.3332 84.8897 28.4011 103.312 19.3036 117.899C15.0396 124.743 10.0857 131.277 6.79488 138.555C3.50403 145.833 1.979 154.185 4.8585 161.616C7.71542 168.987 14.5204 174.513 21.8897 178.403C36.8615 186.307 54.4972 188.567 71.7064 189.848C109.789 192.684 148.073 191.456 186.257 190.227C200.388 189.771 214.58 189.31 228.481 186.932C236.201 185.611 244.17 183.517 249.776 178.455C256.889 172.031 258.653 161.152 253.887 153.098C245.888 139.587 223.788 136.232 218.189 121.729C215.114 113.749 218.275 104.86 222.744 97.4563C232.336 81.5781 248.412 67.6465 249.259 49.4969C249.841 37.0286 242.111 24.5466 230.161 18.6469C217.638 12.4414 200.265 13.2277 191.03 23.4628C181.513 34.0091 164.793 38.0551 150.461 37.5145Z" fill="white"/>
<path d="M109.223 188.51L23.3695 188.054L14.8389 166.276L45.0034 163.893L39.7461 140.015L99.4078 131.599L42.2769 109.982L47.3235 108.677L139.189 124.989L134.13 162.252L126.898 182.73L109.223 188.51Z" fill="#00BFA6"/>
<path d="M24.6864 178.933C24.6864 178.933 29.9538 178.015 33.1142 182.067C33.1142 182.067 30.7966 184.055 25.8101 181.303L24.6864 178.933Z" fill="#00BFA6"/>
<path d="M24.1346 178.843C24.1346 178.843 20.7735 183.345 22.429 188.357C22.429 188.357 25.168 187.164 25.4665 181.087L24.1346 178.843Z" fill="#00BFA6"/>
<path d="M21.1146 171.441C21.1146 171.441 23.2216 167.234 31.6493 173.123C31.6493 173.123 30.5256 175.952 26.8034 175.722C23.0811 175.493 22.0978 173.658 21.1146 171.441Z" fill="#00BFA6"/>
<path d="M20.5703 171.138C20.5703 171.138 16.1984 170.592 15.7745 181.485C15.7745 181.485 18.5462 182.111 20.5151 178.665C22.4841 175.22 21.6765 173.287 20.5703 171.138Z" fill="#00BFA6"/>
<path d="M18.0244 162.449C18.0244 162.449 20.4825 155.034 29.4019 160.308C29.4019 160.308 27.3652 167.112 18.9374 164.971L18.0244 162.449Z" fill="#00BFA6"/>
<path d="M15.2854 151.365C15.2854 151.365 19.9207 143.873 28.1378 150.819C28.1378 150.819 25.2583 157.851 15.9877 154.029L15.2854 151.365Z" fill="#00BFA6"/>
<path d="M14.3022 140.816C14.3022 140.816 19.71 133.933 27.8468 140.816C27.8468 140.816 22.7199 146.855 14.3022 142.574V140.816Z" fill="#00BFA6"/>
<path d="M13.4594 130.569C13.4594 130.569 18.9374 123.384 26.7331 130.187C26.7331 130.187 20.5528 136.532 13.4594 132.251V130.569Z" fill="#00BFA6"/>
<path d="M13.951 121.473C13.951 121.473 19.72 112.223 27.0141 118.491C27.0141 118.491 20.8337 126.441 13.951 123.231V121.473Z" fill="#00BFA6"/>
<path d="M15.2854 110.847C15.2854 110.847 21.3955 101.674 28.4889 108.707C28.4889 108.707 21.2551 116.657 15.2854 112.529V110.847Z" fill="#00BFA6"/>
<path d="M17.3221 101.349C17.3221 101.349 24.556 92.7277 30.8668 96.1622C30.8668 96.1622 23.3294 105.319 17.0061 103.637L17.3221 101.349Z" fill="#00BFA6"/>
<path d="M19.8505 92.3455C19.8505 92.3455 28.198 81.7855 33.054 85.3128C33.054 85.3128 26.9037 93.503 19.2585 94.322L19.8505 92.3455Z" fill="#00BFA6"/>
<path d="M23.5 81.9029C23.5 81.9029 30.8066 73.2814 36.1442 75.4218C36.1442 75.4218 29.8936 84.3654 22.5193 84.5947L23.5 81.9029Z" fill="#00BFA6"/>
<path d="M26.8034 72.1347C26.8034 72.1347 34.88 63.8789 38.3916 65.3313C38.3916 65.3313 32.5624 74.5045 26.4522 73.9694L26.8034 72.1347Z" fill="#00BFA6"/>
<path d="M30.0341 63.1146C30.0341 63.1146 36.987 53.2508 40.782 54.0152C40.782 54.0152 36.5656 62.8089 30.0341 64.1166V63.1146Z" fill="#00BFA6"/>
<path d="M33.5406 50.9521C33.5406 50.9521 39.6859 43.3925 43.0068 43.4089C43.0068 43.4089 38.1558 53.5102 33.2873 53.4174L33.5406 50.9521Z" fill="#00BFA6"/>
<path d="M35.6175 42.8545L41.5546 27.1074C41.5546 27.1074 41.8506 41.342 34.8625 45.7757L35.6175 42.8545Z" fill="#00BFA6"/>
<path d="M38.0279 25.4883C38.0279 25.4883 39.0111 12.3375 38.379 11.2673C38.379 11.2673 42.623 22.2013 37.9878 31.2979L38.0279 25.4883Z" fill="#00BFA6"/>
<path d="M17.7937 162.274C17.7937 162.274 11.6384 158.121 7.65275 168.28C7.65275 168.28 13.1308 172.239 18.5186 164.865L17.7937 162.274Z" fill="#00BFA6"/>
<path d="M15.0873 150.941C15.0873 150.941 7.53737 147.193 3.8753 157.799C3.8753 157.799 9.70703 162.167 15.7745 153.622L15.0873 150.941Z" fill="#00BFA6"/>
<path d="M13.951 141.446C13.951 141.446 8.5432 134.563 0.406366 141.446C0.406366 141.446 5.53327 147.485 13.951 143.204V141.446Z" fill="#00BFA6"/>
<path d="M13.2738 130.569C13.2738 130.569 7.79571 123.384 0 130.187C0 130.187 6.18038 136.532 13.2738 132.251V130.569Z" fill="#00BFA6"/>
<path d="M13.951 121.735C13.951 121.735 10.1083 111.374 1.75578 115.83C1.75578 115.83 6.27067 125.017 13.6099 123.455L13.951 121.735Z" fill="#00BFA6"/>
<path d="M15.7695 110.795C15.7695 110.795 11.9494 100.255 3.479 105.141C3.479 105.141 8.66611 114.803 15.3933 112.423L15.7695 110.795Z" fill="#00BFA6"/>
<path d="M18.1373 101.401C18.1373 101.401 16.6324 89.8447 9.60919 88.81C9.60919 88.81 11.0991 100.997 17.1917 103.484L18.1373 101.401Z" fill="#00BFA6"/>
<path d="M20.0286 92.3673C20.0286 92.3673 19.4416 78.4439 13.635 77.9579C13.635 77.9579 13.8306 88.5261 19.3739 94.3384L20.0286 92.3673Z" fill="#00BFA6"/>
<path d="M24.102 81.5127C24.102 81.5127 22.3713 69.9345 16.828 68.5203C16.828 68.5203 17.5153 79.7327 23.5527 84.3547L24.102 81.5127Z" fill="#00BFA6"/>
<path d="M27.4606 72.2302C27.4606 72.2302 27.4029 60.1688 24.0167 58.3969C24.0167 58.3969 21.9173 69.3172 26.4798 73.77L27.4606 72.2302Z" fill="#00BFA6"/>
<path d="M30.2924 62.9778C30.2924 62.9778 29.8183 50.5587 26.3118 48.8087C26.3118 48.8087 25.1128 58.637 29.7682 63.7914L30.2924 62.9778Z" fill="#00BFA6"/>
<path d="M34.0297 51.9431C34.0297 51.9431 34.0097 41.8418 31.5064 39.4721C31.5064 39.4721 29.0182 50.5371 32.7229 53.9743L34.0297 51.9431Z" fill="#00BFA6"/>
<path d="M35.324 42.3577L32.8885 25.5458C32.8885 25.5458 29.5801 39.3218 35.4394 45.3935L35.324 42.3577Z" fill="#00BFA6"/>
<path d="M35.7981 25.6468C35.7981 25.6468 29.5474 14.3442 29.6754 13.0884C29.6754 13.0884 30.3401 24.9342 38.2035 30.8339L35.7981 25.6468Z" fill="#00BFA6"/>
<path d="M36.5305 22.3082C36.5305 22.3082 30.631 6.2553 27.9622 4.95578C27.9622 4.95578 36.39 9.61876 37.0221 21.8495L36.5305 22.3082Z" fill="#00BFA6"/>
<path d="M33.2572 53.5126L32.8533 53.3788C37.8323 35.707 39.0739 24.44 36.3524 21.6144L36.6408 21.2813C39.5279 24.2625 38.3565 35.4067 33.2572 53.5126Z" fill="#444053"/>
<path d="M19.547 94.8899L18.95 94.6578C19.4792 93.0389 20.0486 91.3953 20.6456 89.7764C25.8427 75.6782 30.2673 62.5629 33.1042 52.4943L33.6234 52.2213C30.7815 62.309 26.4347 75.9267 21.2325 90.044C20.6381 91.6329 20.0712 93.2682 19.547 94.8899Z" fill="#444053"/>
<path d="M32.1084 192.157C32.0281 192.062 23.959 182.171 18.3329 165.285C15.0364 155.399 13.2018 145.007 12.8975 134.495C12.5112 121.355 15.0446 106.684 19.3839 93.3556L19.8555 93.9562C10.1133 123.87 13.9836 149.502 19.118 164.938C24.6839 181.671 32.6627 191.453 32.7404 191.551L32.1084 192.157Z" fill="#444053"/>
<path d="M158.204 171.158C158.204 171.158 152.518 178.712 157.033 190.132L111.633 211.563L107.276 212.557L105.27 203.001L106.612 190.943V184.352L158.204 171.158Z" fill="#D5D6DB"/>
<path d="M14.8389 166.276L77.6762 153.808L160.938 168.245L109.223 188.51L14.8389 166.276Z" fill="#00BFA6"/>
<path d="M14.8389 166.276L77.6762 153.808L160.938 168.245L109.223 188.51L14.8389 166.276Z" fill="#00BFA6"/>
<path d="M14.8389 166.273C14.8389 166.273 8.96203 178.392 15.7344 189.586L108.917 211.563C108.917 211.563 103.133 201.909 109.215 188.51L14.8389 166.273Z" fill="#00BFA6"/>
<path opacity="0.1" d="M14.8389 166.273C14.8389 166.273 8.96203 178.392 15.7344 189.586L108.917 211.563C108.917 211.563 103.133 201.909 109.215 188.51L14.8389 166.273Z" fill="black"/>
<path opacity="0.1" d="M17.6156 170.475C17.6156 170.475 14.257 179.342 17.6156 185.081Z" fill="black"/>
<path d="M108.917 211.563L160.938 187.401C160.938 187.401 163.848 188.084 161.967 190.405C160.085 192.725 109.92 213.883 109.92 213.883L15.7344 189.586L108.917 211.563Z" fill="#00BFA6"/>
<path opacity="0.1" d="M108.917 211.563L160.938 187.401C160.938 187.401 163.848 188.084 161.967 190.405C160.085 192.725 109.92 213.883 109.92 213.883L15.7344 189.586L108.917 211.563Z" fill="black"/>
<path opacity="0.1" d="M104.653 190.951C104.653 190.951 99.6361 197.503 104.653 207.331Z" fill="black"/>
<path opacity="0.1" d="M128.939 190.84L106.438 199.011L106.517 199.27L129.019 191.099L128.939 190.84Z" fill="black"/>
<path opacity="0.1" d="M133.446 190.027L106.431 201.208L106.52 201.464L133.536 190.282L133.446 190.027Z" fill="black"/>
<path opacity="0.1" d="M137.585 189.988L106.582 203.8L106.677 204.053L137.68 190.24L137.585 189.988Z" fill="black"/>
<path opacity="0.1" d="M142.086 188.805L106.944 206.084L107.047 206.333L142.19 189.054L142.086 188.805Z" fill="black"/>
<path opacity="0.1" d="M145.868 188.811L107.222 207.197L107.322 207.447L145.968 189.061L145.868 188.811Z" fill="black"/>
<path opacity="0.1" d="M154.139 187.282L107.804 209.064L107.904 209.314L154.238 187.532L154.139 187.282Z" fill="black"/>
<path opacity="0.3" d="M38.1834 167.608L82.329 157.507L109.223 163.104L73.0484 175.799L38.1834 167.608Z" fill="white"/>
<path d="M160.938 168.245C160.938 168.245 163.221 169.247 161.881 170.794C160.542 172.342 109.215 188.51 109.215 188.51L160.938 168.245Z" fill="#00BFA6"/>
<path d="M183.109 144.9C183.109 144.9 177.425 152.451 181.94 163.874L136.54 185.305L132.183 186.304L130.177 176.749L131.539 164.693V158.094L183.109 144.9Z" fill="#D5D6DB"/>
<path d="M39.7461 140.015L102.581 127.55L185.845 141.987L134.13 162.252L39.7461 140.015Z" fill="#3A3768"/>
<path d="M39.736 140.015C39.736 140.015 33.8566 152.134 40.629 163.328L133.811 185.305C133.811 185.305 128.03 175.643 134.12 162.249L39.736 140.015Z" fill="#3A3768"/>
<path opacity="0.1" d="M39.736 140.015C39.736 140.015 33.8566 152.134 40.629 163.328L133.811 185.305C133.811 185.305 128.03 175.643 134.12 162.249L104.653 155.307L39.736 140.015Z" fill="black"/>
<path opacity="0.1" d="M42.5202 144.217C42.5202 144.217 39.1642 153.082 42.5202 158.823Z" fill="black"/>
<path d="M133.821 185.305L185.845 161.144C185.845 161.144 188.752 161.826 186.871 164.147C184.99 166.467 134.825 187.626 134.825 187.626L40.639 163.328L133.821 185.305Z" fill="#3A3768"/>
<path opacity="0.1" d="M133.821 185.305L185.845 161.144C185.845 161.144 188.752 161.826 186.871 164.147C184.99 166.467 134.825 187.626 134.825 187.626L40.639 163.328L133.821 185.305Z" fill="black"/>
<path opacity="0.1" d="M129.557 164.693C129.557 164.693 124.541 171.245 129.557 181.073Z" fill="black"/>
<path opacity="0.1" d="M153.846 164.585L131.345 172.756L131.424 173.015L153.925 164.844L153.846 164.585Z" fill="black"/>
<path opacity="0.1" d="M158.356 163.77L131.341 174.952L131.43 175.207L158.445 164.025L158.356 163.77Z" fill="black"/>
<path opacity="0.1" d="M162.492 163.727L131.488 177.54L131.583 177.793L162.587 163.98L162.492 163.727Z" fill="black"/>
<path opacity="0.1" d="M166.995 162.545L131.853 179.824L131.956 180.073L167.099 162.794L166.995 162.545Z" fill="black"/>
<path opacity="0.1" d="M170.773 162.547L132.127 180.933L132.228 181.184L170.874 162.798L170.773 162.547Z" fill="black"/>
<path opacity="0.1" d="M179.046 161.018L132.712 182.8L132.811 183.051L179.146 161.269L179.046 161.018Z" fill="black"/>
<path opacity="0.45" d="M63.0906 141.351L107.236 131.249L134.13 136.846L97.9555 149.541L63.0906 141.351Z" fill="white"/>
<path d="M185.845 141.987C185.845 141.987 188.125 142.989 186.788 144.534C185.452 146.079 134.13 162.249 134.13 162.249L185.845 141.987Z" fill="#3A3768"/>
<path d="M185.467 114.861C185.467 114.861 179.78 128.421 184.295 139.841L138.896 155.266L134.549 156.267L132.542 146.712L133.884 134.654V128.055L185.467 114.861Z" fill="#D5D6DB"/>
<path d="M42.1114 109.979L104.949 97.5109L188.213 111.948L136.495 132.213L42.1114 109.979Z" fill="#00BFA6"/>
<path d="M42.1114 109.976C42.1114 109.976 36.2244 122.095 42.9968 133.289L136.179 155.266C136.179 155.266 130.395 145.604 136.485 132.213L42.1114 109.976Z" fill="#00BFA6"/>
<path opacity="0.1" d="M42.1114 109.976C42.1114 109.976 36.2244 122.095 42.9968 133.289L136.179 155.266C136.179 155.266 130.395 145.604 136.485 132.213L42.1114 109.976Z" fill="black"/>
<path opacity="0.1" d="M44.888 114.178C44.888 114.178 41.5295 123.045 44.888 128.784Z" fill="black"/>
<path d="M136.189 155.266L188.211 137.111C188.211 137.111 191.12 137.793 189.239 140.114C187.358 142.434 137.192 157.586 137.192 157.586L43.0068 133.288L136.189 155.266Z" fill="#00BFA6"/>
<path opacity="0.1" d="M136.189 155.266L188.211 137.111C188.211 137.111 191.12 137.793 189.239 140.114C187.358 142.434 137.192 157.586 137.192 157.586L43.0068 133.288L136.189 155.266Z" fill="black"/>
<path opacity="0.1" d="M131.925 134.654C131.925 134.654 126.908 141.206 131.925 151.034Z" fill="black"/>
<path opacity="0.1" d="M156.215 134.545L133.713 142.716L133.792 142.975L156.294 134.804L156.215 134.545Z" fill="black"/>
<path opacity="0.1" d="M160.723 133.732L133.707 144.914L133.797 145.169L160.812 133.987L160.723 133.732Z" fill="black"/>
<path opacity="0.1" d="M164.856 133.691L133.852 147.503L133.947 147.756L164.951 133.943L164.856 133.691Z" fill="black"/>
<path opacity="0.1" d="M169.364 132.506L134.22 149.785L134.324 150.034L169.467 132.755L169.364 132.506Z" fill="black"/>
<path opacity="0.1" d="M173.142 132.511L134.496 150.896L134.597 151.147L173.243 132.761L173.142 132.511Z" fill="black"/>
<path opacity="0.1" d="M181.415 130.983L135.08 152.765L135.18 153.016L181.514 131.234L181.415 130.983Z" fill="black"/>
<path opacity="0.3" d="M65.4559 111.311L109.601 101.21L136.495 106.807L100.321 119.502L65.4559 111.311Z" fill="white"/>
<path d="M188.211 111.948C188.211 111.948 190.493 112.949 189.154 114.497C187.814 116.045 136.495 132.213 136.495 132.213L188.211 111.948Z" fill="#00BFA6"/>
<path d="M77.8618 29.0729C77.8618 29.0729 68.3303 28.4477 69.444 35.7261C69.444 35.7261 69.2208 37.0119 70.2918 37.5962C70.2918 37.5962 70.3094 37.0501 71.27 37.2385C71.6128 37.3026 71.9616 37.321 72.3085 37.2931C72.7761 37.2583 73.2206 37.059 73.5751 36.7253V36.7253C73.5751 36.7253 76.2565 35.5186 77.2999 30.7464C77.2999 30.7464 78.0725 29.7062 78.0524 29.4387L76.4371 30.1867C76.4371 30.1867 76.9864 31.4508 76.555 32.5018C76.555 32.5018 76.5023 30.2331 76.1913 30.285C76.1286 30.285 75.356 30.7246 75.356 30.7246C75.356 30.7246 76.3016 32.9277 75.5868 34.5276C75.5868 34.5276 75.8577 31.8139 75.06 30.8829L73.9263 31.6036C73.9263 31.6036 75.0325 33.8778 74.2825 35.7343C74.2825 35.7343 74.4756 32.8868 73.688 31.7784L72.6596 32.652C72.6596 32.652 73.7006 34.8934 73.066 36.4332C73.066 36.4332 72.9832 33.1188 72.4389 32.8677C72.4389 32.8677 71.5384 33.7304 71.403 34.0853C71.403 34.0853 72.1153 35.7233 71.6714 36.5724C71.6714 36.5724 71.403 34.3637 71.1697 34.3528C71.1697 34.3528 70.2742 35.8162 70.1814 36.8099C70.2248 35.8835 70.4903 34.9855 70.9515 34.2054C70.4354 34.3117 69.9593 34.5803 69.582 34.978C69.582 34.978 69.7199 33.9433 71.1747 33.8532C71.1747 33.8532 71.9147 32.7421 72.1128 32.6766C72.1128 32.6766 70.6655 32.5428 69.7901 32.9659C69.7901 32.9659 70.5627 31.9913 72.3762 32.4199L73.3795 31.519C73.3795 31.519 71.4782 31.246 70.6705 31.549C70.6705 31.549 71.6011 30.6863 73.6529 31.3143L74.759 30.5962C74.759 30.5962 73.1362 30.2168 72.1705 30.3533C72.1705 30.3533 73.1889 29.7554 75.0826 30.4024L75.8702 30.0175C75.8702 30.0175 74.6838 29.7636 74.3351 29.7226C73.9865 29.6817 73.9689 29.5779 73.9689 29.5779C74.722 29.4433 75.4945 29.5378 76.2013 29.8509C76.2013 29.8509 77.8944 29.1875 77.8618 29.0729Z" fill="#00BFA6"/>
<path opacity="0.1" d="M211.954 58.9893C211.954 58.9893 202.422 58.3641 203.536 65.6425C203.536 65.6425 203.313 66.9284 204.384 67.5126C204.384 67.5126 204.402 66.9666 205.362 67.155C205.705 67.2176 206.054 67.2359 206.401 67.2096C206.864 67.1724 207.304 66.9732 207.655 66.6417V66.6417C207.655 66.6417 210.339 65.435 211.38 60.6628C211.38 60.6628 212.152 59.6227 212.132 59.3551L210.522 60.1032C210.522 60.1032 211.071 61.3672 210.64 62.4183C210.64 62.4183 210.587 60.1496 210.278 60.2015C210.216 60.2015 209.441 60.641 209.441 60.641C209.441 60.641 210.386 62.8442 209.674 64.444C209.674 64.444 209.945 61.7303 209.145 60.7993L208.011 61.5201C208.011 61.5201 209.117 63.7942 208.367 65.6507C208.367 65.6507 208.56 62.8032 207.773 61.6948L206.747 62.5684C206.747 62.5684 207.785 64.8098 207.151 66.3496C207.151 66.3496 207.068 63.0353 206.524 62.7841C206.524 62.7841 205.626 63.6468 205.488 64.0017C205.488 64.0017 206.2 65.6398 205.759 66.4888C205.759 66.4888 205.488 64.2802 205.257 64.2693C205.257 64.2693 204.361 65.7326 204.269 66.7263C204.312 65.7995 204.578 64.9013 205.041 64.1218C204.524 64.2284 204.048 64.4969 203.669 64.8945C203.669 64.8945 203.81 63.8598 205.262 63.7697C205.262 63.7697 206.002 62.6585 206.2 62.5903C206.2 62.5903 204.755 62.4592 203.877 62.8824C203.877 62.8824 204.65 61.9078 206.463 62.3364L207.467 61.4354C207.467 61.4354 205.563 61.1624 204.758 61.4655C204.758 61.4655 205.686 60.6028 207.74 61.2307L208.844 60.5127C208.844 60.5127 207.221 60.1332 206.255 60.2697C206.255 60.2697 207.273 59.6718 209.167 60.3188L209.957 59.9339C209.957 59.9339 208.768 59.68 208.42 59.6391C208.071 59.5981 208.054 59.4944 208.054 59.4944C208.807 59.358 209.58 59.4526 210.286 59.7674C210.286 59.7674 211.984 59.104 211.954 58.9893Z" fill="#00BFA6"/>
<path opacity="0.1" d="M93.9147 74.0375C93.9147 74.0375 89.761 64.6651 84.4736 69.2844C84.4736 69.2844 83.3323 69.6994 83.3875 71.0017C83.3875 71.0017 83.8264 70.7532 84.14 71.7579C84.2571 72.1131 84.412 72.4521 84.6015 72.7681C84.8581 73.1964 85.2358 73.5222 85.6776 73.6963C85.6776 73.6963 87.9526 75.6565 92.2894 74.3187C92.2894 74.3187 93.5009 74.5453 93.699 74.387L92.3145 73.2212C92.3145 73.2212 91.562 74.3597 90.5135 74.4607C90.5135 74.4607 92.3094 73.3059 92.1163 73.0383C92.0762 72.9837 91.3638 72.4568 91.3638 72.4568C91.3638 72.4568 90.057 74.4307 88.4266 74.5317C88.4266 74.5317 90.7342 73.467 91.0904 72.2521L89.9617 71.5259C89.9617 71.5259 88.6749 73.6881 86.8213 73.8792C86.8213 73.8792 89.1992 72.6752 89.7033 71.3866L88.5044 70.8406C88.5044 70.8406 87.2126 72.9209 85.6675 73.0711C85.6675 73.0711 88.2862 71.3757 88.2209 70.7341C88.2209 70.7341 87.0897 70.3028 86.7386 70.3437C86.7386 70.3437 85.7804 71.8152 84.8774 71.8152C84.8774 71.8152 86.5153 70.4802 86.415 70.2645C86.415 70.2645 84.8047 70.128 83.9569 70.5376C84.7208 70.1243 85.5709 69.936 86.4225 69.9915C86.0847 69.553 85.6366 69.2314 85.1333 69.066C85.1333 69.066 86.0312 68.6947 86.8113 70.0298C86.8113 70.0298 88.0654 70.1908 88.2134 70.3465C88.2134 70.3465 87.6139 68.9104 86.8489 68.2852C86.8489 68.2852 88.0077 68.5391 88.537 70.4693L89.7535 70.9935C89.7535 70.9935 89.0537 69.0497 88.4091 68.4354C88.4091 68.4354 89.5528 68.8968 90.052 71.1655L91.1657 71.8644C91.1657 71.8644 90.6816 70.1362 90.0997 69.2872C90.0997 69.2872 91.0754 69.9642 91.4792 72.0773L92.174 72.6397C92.174 72.6397 91.7978 71.3866 91.6723 71.0372C91.5469 70.6877 91.6096 70.6167 91.6096 70.6167C92.0868 71.2649 92.389 72.0447 92.4825 72.8691C92.4825 72.8691 93.8244 74.1195 93.9147 74.0375Z" fill="#00BFA6"/>
<path opacity="0.1" d="M190.177 45.7485C190.177 45.7485 186.026 36.3761 180.736 40.9954C180.736 40.9954 179.597 41.4104 179.65 42.7126C179.65 42.7126 180.091 42.4669 180.402 43.4689C180.519 43.8255 180.675 44.1655 180.866 44.4817C181.122 44.9092 181.499 45.2342 181.94 45.4072V45.4072C181.94 45.4072 184.217 47.3674 188.552 46.0324C188.552 46.0324 189.763 46.2563 189.964 46.0979L188.587 44.9295C188.587 44.9295 187.834 46.0706 186.788 46.1717C186.788 46.1717 188.582 45.0141 188.389 44.7465C188.349 44.6919 187.636 44.165 187.636 44.165C187.636 44.165 186.332 46.1389 184.699 46.2399C184.699 46.2399 187.009 45.1752 187.365 43.963L186.219 43.2423C186.219 43.2423 184.935 45.4018 183.079 45.5956C183.079 45.5956 185.457 44.3889 185.963 43.1003L184.762 42.5543C184.762 42.5543 183.47 44.6373 181.927 44.7848C181.927 44.7848 184.544 43.0894 184.478 42.4505C184.478 42.4505 183.35 42.0165 182.998 42.0601C182.998 42.0601 182.04 43.5289 181.135 43.5289C181.135 43.5289 182.775 42.1939 182.675 41.9782C182.675 41.9782 181.065 41.8417 180.214 42.2512C180.978 41.8378 181.828 41.6496 182.68 41.7052C182.343 41.2665 181.896 40.9447 181.393 40.7797C181.393 40.7797 182.291 40.4084 183.071 41.7434C183.071 41.7434 184.325 41.9073 184.473 42.0629C184.473 42.0629 183.874 40.6241 183.106 39.9989C183.106 39.9989 184.265 40.2555 184.794 42.1966L186.013 42.7208C186.013 42.7208 185.314 40.7743 184.669 40.16C184.669 40.16 185.813 40.6214 186.309 42.8901L187.426 43.589C187.426 43.589 186.939 41.8636 186.357 41.0118C186.357 41.0118 187.335 41.6888 187.737 43.8019L188.431 44.3643C188.431 44.3643 188.058 43.1112 187.93 42.7618C187.802 42.4123 187.867 42.3441 187.867 42.3441C188.343 42.9929 188.644 43.7725 188.737 44.5964C188.737 44.5964 190.099 45.8358 190.177 45.7485Z" fill="#00BFA6"/>
<path opacity="0.1" d="M203.444 92.1081C203.444 92.1081 199.292 82.7329 193.995 87.3522C193.995 87.3522 192.856 87.7672 192.909 89.0695C192.909 89.0695 193.35 88.8238 193.661 89.8257C193.777 90.1822 193.932 90.5222 194.123 90.8386C194.378 91.2661 194.755 91.591 195.196 91.7641C195.196 91.7641 197.474 93.727 201.811 92.3893C201.811 92.3893 203.02 92.6159 203.22 92.4548L201.836 91.289C201.836 91.289 201.083 92.4302 200.035 92.5312C200.035 92.5312 201.828 91.3737 201.635 91.1061C201.595 91.0515 200.883 90.5246 200.883 90.5246C200.883 90.5246 199.578 92.4985 197.945 92.6022C197.945 92.6022 200.255 91.5347 200.612 90.3226L199.48 89.5964C199.48 89.5964 198.196 91.7586 196.34 91.9497C196.34 91.9497 198.718 90.743 199.225 89.4544L198.023 88.9084C198.023 88.9084 196.731 90.9887 195.189 91.1389C195.189 91.1389 197.807 89.4435 197.742 88.8019C197.742 88.8019 196.611 88.3678 196.26 88.4115C196.26 88.4115 195.302 89.8803 194.396 89.8803C194.396 89.8803 196.036 88.5453 195.936 88.3296C195.936 88.3296 194.326 88.1931 193.476 88.6026C194.24 88.1895 195.091 88.0012 195.944 88.0566C195.607 87.6172 195.158 87.2953 194.654 87.1311C194.654 87.1311 195.552 86.7571 196.332 88.0948C196.332 88.0948 197.587 88.2559 197.735 88.4115C197.735 88.4115 197.135 86.9755 196.37 86.3476C196.37 86.3476 197.529 86.6042 198.058 88.5453L199.275 89.0695C199.275 89.0695 198.575 87.1229 197.93 86.5114C197.93 86.5114 199.074 86.97 199.571 89.2415L200.687 89.9376C200.687 89.9376 200.2 88.2122 199.618 87.3604C199.618 87.3604 200.597 88.0375 201 90.1533L201.695 90.6993C201.695 90.6993 201.319 89.4462 201.194 89.0968C201.068 88.7473 201.131 88.6791 201.131 88.6791C201.608 89.3271 201.909 90.1071 202.001 90.9314C202.001 90.9314 203.366 92.19 203.444 92.1081Z" fill="#00BFA6"/>
<path opacity="0.1" d="M50.6546 214.08C53.8393 214.08 56.4211 213.766 56.4211 213.378C56.4211 212.991 53.8393 212.677 50.6546 212.677C47.4698 212.677 44.888 212.991 44.888 213.378C44.888 213.766 47.4698 214.08 50.6546 214.08Z" fill="#00BFA6"/>
<path opacity="0.1" d="M12.8524 202.155C16.0372 202.155 18.6189 201.841 18.6189 201.453C18.6189 201.066 16.0372 200.752 12.8524 200.752C9.66765 200.752 7.0859 201.066 7.0859 201.453C7.0859 201.841 9.66765 202.155 12.8524 202.155Z" fill="#00BFA6"/>
<path opacity="0.1" d="M79.4695 222C82.6543 222 85.2361 221.686 85.2361 221.298C85.2361 220.911 82.6543 220.597 79.4695 220.597C76.2848 220.597 73.703 220.911 73.703 221.298C73.703 221.686 76.2848 222 79.4695 222Z" fill="#00BFA6"/>
<path opacity="0.1" d="M227.131 204.749C230.316 204.749 232.898 204.434 232.898 204.047C232.898 203.659 230.316 203.345 227.131 203.345C223.947 203.345 221.365 203.659 221.365 204.047C221.365 204.434 223.947 204.749 227.131 204.749Z" fill="#00BFA6"/>
<path opacity="0.1" d="M179.146 201.344C182.331 201.344 184.912 201.03 184.912 200.643C184.912 200.255 182.331 199.941 179.146 199.941C175.961 199.941 173.379 200.255 173.379 200.643C173.379 201.03 175.961 201.344 179.146 201.344Z" fill="#00BFA6"/>
<path opacity="0.1" d="M148.103 217.948C151.87 217.948 154.923 217.378 154.923 216.673C154.923 215.969 151.87 215.398 148.103 215.398C144.337 215.398 141.283 215.969 141.283 216.673C141.283 217.378 144.337 217.948 148.103 217.948Z" fill="#00BFA6"/>
<path d="M151.146 203.859C151.146 203.859 141.65 209.199 146.556 215.489C146.556 215.489 147.017 216.854 148.352 216.758C148.352 216.758 148.086 216.228 149.104 215.805C149.467 215.653 149.811 215.454 150.13 215.213C150.561 214.888 150.884 214.42 151.048 213.878V213.878C151.048 213.878 152.99 211.05 151.485 205.816C151.485 205.816 151.68 204.336 151.51 204.096L150.356 205.819C150.356 205.819 151.547 206.69 151.685 207.97C151.685 207.97 150.431 205.821 150.18 206.059C150.125 206.108 149.608 207.001 149.608 207.001C149.608 207.001 151.675 208.527 151.828 210.509C151.828 210.509 150.664 207.732 149.408 207.337L148.688 208.734C148.688 208.734 150.945 210.23 151.196 212.48C151.196 212.48 149.884 209.627 148.545 209.051L148.016 210.528C148.016 210.528 150.193 212.035 150.393 213.908C150.393 213.908 148.572 210.777 147.918 210.875C147.918 210.875 147.506 212.262 147.562 212.69C147.562 212.69 149.099 213.81 149.127 214.91C149.127 214.91 147.707 212.958 147.489 213.086C147.489 213.086 147.399 215.049 147.835 216.07C147.835 216.07 147.083 214.612 147.205 213.086C146.766 213.51 146.449 214.064 146.295 214.68C146.295 214.68 145.886 213.602 147.233 212.608C147.233 212.608 147.361 211.082 147.516 210.894C147.516 210.894 146.059 211.669 145.44 212.619C145.44 212.619 145.668 211.202 147.644 210.498L148.146 209.002C148.146 209.002 146.17 209.914 145.56 210.716C145.56 210.716 145.999 209.31 148.302 208.636L148.984 207.271C148.984 207.271 147.228 207.915 146.37 208.636C146.37 208.636 147.035 207.427 149.194 206.87L149.749 206.01C149.749 206.01 148.475 206.504 148.118 206.681C147.762 206.859 147.692 206.771 147.692 206.771C148.343 206.172 149.134 205.781 149.977 205.641C149.977 205.641 151.234 203.951 151.146 203.859Z" fill="#00BFA6"/>
<path d="M179.331 103.001C177.691 98.1499 168.661 97.694 164.743 98.9307C161.959 99.8126 156.09 100.806 152.954 101.306L152.751 101.096C153.158 100.965 153.168 100.643 153.117 100.165C153.088 99.5351 153.097 98.904 153.143 98.2755C155.064 98.9253 156.774 97.3882 156.774 97.3882C159.032 96.2962 158.425 91.6223 158.856 90.3446C159.18 89.3891 159.529 83.7597 159.684 80.9531H159.717L159.734 80.0113C159.757 79.6045 159.767 79.367 159.767 79.367C159.767 79.367 159.988 72.5035 160.419 71.1139C160.82 69.8362 161.146 63.3987 161.197 62.3777C161.197 62.2903 161.197 62.2439 161.197 62.2439L161.164 61.6487C161.187 61.2146 161.197 60.7314 161.194 60.2236C161.194 57.8894 160.971 54.9491 160.943 54.4741C160.943 54.4058 160.943 54.3239 160.943 54.2256C160.961 53.2291 160.845 48.2386 156.945 46.3521C155.508 45.6532 153.78 44.8205 152.107 44.0097C151.675 39.9555 150.689 35.9231 150.775 31.8389C150.775 31.2247 150.825 30.6104 150.88 29.9989C150.88 30.1763 150.862 30.3565 150.86 30.5449C150.86 30.9407 150.86 31.3393 150.86 31.7352C151.008 26.6272 152.781 21.4919 152.616 16.4931C152.601 16.9818 152.568 17.4732 152.525 17.9647C152.612 16.2739 152.449 14.5789 152.044 12.944C151.893 12.368 151.69 11.7728 151.256 11.3879C150.846 11.0779 150.376 10.8751 149.882 10.7955C148.695 10.4648 147.489 10.2204 146.272 10.0638C146.087 9.44781 145.813 8.86806 145.46 8.34657C142.916 4.54629 139.149 0.975343 134.694 0.156318C132.459 -0.253195 129.888 0.0880656 128.368 1.82713C128.21 1.9799 128.06 2.14407 127.922 2.31854C127.104 3.38055 126.753 4.77562 125.915 5.83489C125.86 5.90588 125.797 5.9714 125.737 6.03965C124.097 7.63675 121.541 7.96982 119.717 9.40311C119.396 9.66041 119.095 9.94623 118.817 10.2576C118.082 11.0501 117.423 11.9219 116.85 12.8594C116.03 14.1152 115.187 15.4229 114.926 16.9218C114.402 19.9249 116.281 22.7723 116.63 25.7945C117.407 32.557 110.532 38.5577 111.834 45.23C112.181 46.8692 112.948 48.3677 114.046 49.5517C111.365 52.1944 109.082 54.758 109.082 54.758V54.9109H108.658L108.701 55.4569H108.658L108.892 58.419L108.658 62.7326C108.658 62.7326 108.658 62.779 108.658 62.8663V62.8882V63.0056C108.658 63.0056 108.658 63.052 108.658 63.1394H108.673C108.751 64.7201 109.06 70.4041 109.426 71.6026C109.857 72.9922 110.075 79.8556 110.075 79.8556C110.075 79.8556 110.552 89.5556 110.988 90.8388C111.425 92.1219 110.805 96.7822 113.07 97.8824C113.733 98.4356 114.517 98.7896 115.345 98.9089C115.23 99.93 115.303 100.67 115.676 100.902C115.836 101.004 116.018 101.061 116.203 101.066C116.05 101.314 115.913 101.574 115.794 101.844C114.895 101.742 114.012 101.515 113.166 101.169C110.733 100.077 102.659 97.6203 100.313 99.3484C97.9681 101.077 92.3244 102.644 94.9305 109.6C97.5366 116.556 98.7506 116.731 98.7506 116.731C99.5528 117.365 100.257 118.134 100.835 119.011C101.618 120.291 108.909 123.22 110.733 123.22C111.508 123.207 112.283 123.249 113.053 123.346C113.053 123.346 111.074 125.235 111.337 126.333C111.601 127.43 110.735 136.215 110.735 136.215C110.735 136.215 112.742 138.416 113.6 135.53L113.63 135.574C113.79 135.811 114.658 136.884 116.291 135.53C116.959 134.978 117.669 134.489 118.413 134.067L126.319 132.849C127.143 132.793 127.97 132.787 128.795 132.83C130.049 132.942 131.28 132.134 132.055 131.509C133.693 132.186 135.534 132.926 136.41 133.196C138.186 133.742 146.348 136.125 148.256 135.38C148.653 135.208 149.006 134.935 149.285 134.583L151.106 134.646L150.253 134.831C150.253 134.831 151.913 134.861 154.171 134.894L154.076 134.954L156.907 134.927C161.051 134.968 165.706 134.981 166.318 134.831C167.277 134.599 172.256 134.763 173.723 134.831H174.132C174.132 134.831 179.602 133.644 177.345 127.602C175.609 122.961 170.274 121.612 167.906 121.241C168.573 121.096 169.148 120.984 169.529 120.919C171.182 120.646 174.393 119.008 174.653 118.448C174.914 117.888 177.606 116.264 178.3 115.339C178.995 114.413 180.979 107.853 179.331 103.001ZM134.019 116.578L133.751 116.674L133.57 116.739L133.224 117.11C132.948 116.908 132.652 116.695 132.344 116.477C132.888 116.512 133.448 116.548 134.019 116.578Z" fill="url(#paint0_linear)"/>
<path d="M150.012 87.7918C150.012 87.7918 153.85 98.7121 156.032 97.6201C158.214 96.5281 157.622 91.8869 158.039 90.6147C158.455 89.3425 158.917 79.6944 158.917 79.6944C158.917 79.6944 159.127 72.8692 159.544 71.4877C159.93 70.2182 160.243 63.8162 160.296 62.8088C160.296 62.7214 160.296 62.675 160.296 62.675L159.882 54.7578L157.539 54.1217L152.107 56.3057L151.354 60.9824L151.061 62.8088L150.935 63.5869L150.012 87.7918Z" fill="#BE6F72"/>
<path opacity="0.1" d="M151.276 85.9626C151.276 85.9626 154.938 89.225 156.042 89.5117C157.146 89.7984 157.823 92.3428 157.823 92.3428" fill="black"/>
<path d="M120.001 88.2694C120.001 88.2694 116.163 99.1897 113.981 98.0977C111.799 97.0057 112.391 92.3645 111.974 91.0923C111.558 89.8201 111.096 80.172 111.096 80.172C111.096 80.172 110.886 73.3468 110.469 71.9653C110.083 70.6958 109.769 64.2938 109.717 63.2864C109.717 63.199 109.717 63.1526 109.717 63.1526L110.133 55.2354L112.476 54.5993L117.909 56.7833L118.661 61.46L118.955 63.2864L119.08 64.0645L120.001 88.2694Z" fill="#BE6F72"/>
<path d="M144.991 29.8292H136.425V44.3615H144.991V29.8292Z" fill="#3E373A"/>
<path opacity="0.1" d="M144.991 29.8292H136.425V44.3615H144.991V29.8292Z" fill="black"/>
<path d="M118.496 99.1461C118.496 99.1461 115.569 102.649 116.655 103.285C117.741 103.921 124.766 115.843 124.766 115.843C124.766 115.843 147.843 118.937 152.194 114.295C156.546 109.654 156.458 101.363 156.458 101.363C156.458 101.363 152.962 102.182 152.581 101.737C152.199 101.292 150.105 99.1461 150.105 99.1461C150.105 99.1461 120.502 97.1913 118.496 99.1461Z" fill="#4B4B5B"/>
<path opacity="0.02" d="M118.496 99.1461C118.496 99.1461 115.569 102.649 116.655 103.285C117.741 103.921 124.766 115.843 124.766 115.843C124.766 115.843 147.843 118.937 152.194 114.295C156.546 109.654 156.458 101.363 156.458 101.363C156.458 101.363 152.962 102.182 152.581 101.737C152.199 101.292 150.105 99.1461 150.105 99.1461C150.105 99.1461 120.502 97.1913 118.496 99.1461Z" fill="black"/>
<path d="M160.038 54.8722L152.513 61.4244L150.238 61.6046L149.403 61.6701L135.374 62.7894L120.826 61.6319L118.661 61.4599L115.902 61.2415L110.133 55.2353C110.133 55.2353 114.217 50.474 117.793 47.2607C119.203 45.9913 120.535 44.9647 121.506 44.5607L121.671 44.4979C122.282 44.2387 122.827 43.8251 123.261 43.2912C126.086 40.1216 128.697 32.2999 128.697 32.2999C128.697 32.2999 141.156 25.2945 139.651 34.484C138.146 43.6734 145.252 41.402 145.252 41.402L147.594 42.565L148.52 43.0264L150.88 44.2031L156.205 46.8622C160.384 48.9561 160.038 54.8722 160.038 54.8722Z" fill="#BE6F72"/>
<path opacity="0.1" d="M134.789 39.7831C140.978 39.7831 145.994 34.3231 145.994 27.5878C145.994 20.8525 140.978 15.3925 134.789 15.3925C128.601 15.3925 123.585 20.8525 123.585 27.5878C123.585 34.3231 128.601 39.7831 134.789 39.7831Z" fill="black"/>
<path opacity="0.1" d="M160.055 63.5594H109.717C109.717 63.4721 109.717 63.4257 109.717 63.4257L110.133 55.5084C110.133 55.5084 114.217 50.7471 117.793 47.5338L149.398 46.1688L150.867 44.4816L156.192 47.1407C160.374 49.2319 160.038 55.148 160.038 55.148C160.038 55.148 160.609 62.0033 160.055 63.5594Z" fill="black"/>
<path d="M160.055 63.2864H109.717C109.717 63.1991 109.717 63.1527 109.717 63.1527L110.133 55.2354C110.133 55.2354 114.217 50.4742 117.793 47.2609L149.398 45.8958L150.867 44.2086L156.192 46.8677C160.374 48.959 160.038 54.8751 160.038 54.8751C160.038 54.8751 160.609 61.7303 160.055 63.2864Z" fill="#E7C7CA"/>
<path opacity="0.1" d="M126.72 41.0854C126.72 41.0854 134.662 52.0986 145.239 40.8588C155.816 29.6191 146.41 65.9292 146.41 65.9292L123.585 68.8777L126.72 41.0854Z" fill="black"/>
<path d="M126.72 41.6316C126.72 41.6316 134.662 52.6448 145.239 41.405C155.816 30.1652 146.41 66.4754 146.41 66.4754L123.585 69.4239L126.72 41.6316Z" fill="#E7C7CA"/>
<path opacity="0.1" d="M148.507 43.5643L149.347 57.5123L150.248 62.1535L150.935 65.7026C150.935 65.7026 152.691 93.0034 152.189 94.3685C151.688 95.7335 152.44 96.8255 152.545 97.5517C152.651 98.2779 152.44 100.102 152.523 100.921C152.606 101.74 152.523 102.103 150.602 101.811C148.68 101.519 146.001 101.011 146.001 101.011C146.001 101.011 139.229 101.557 136.889 100.648C134.549 99.7385 130.117 99.7358 130.117 99.7358C130.117 99.7358 123.427 99.9187 121.255 99.6457C119.083 99.3727 117.909 102.559 116.489 101.647C115.069 100.735 118.16 91.9114 119.163 89.3615C120.166 86.8116 117.826 80.3522 117.826 80.3522L120.836 62.178L121.506 58.0583V45.1068L121.671 45.044C122.282 44.7849 122.827 44.3712 123.261 43.8373L124.014 56.8708L147.592 57.7826V43.1139" fill="black"/>
<path d="M148.507 43.0184L149.347 56.9664L150.248 61.6075L150.935 65.1566C150.935 65.1566 152.691 92.4575 152.189 93.8225C151.688 95.1876 152.44 96.2796 152.545 97.0058C152.651 97.732 152.44 99.5557 152.523 100.375C152.606 101.194 152.523 101.557 150.602 101.265C148.68 100.973 146.001 100.465 146.001 100.465C146.001 100.465 139.229 101.011 136.889 100.102C134.549 99.1926 130.117 99.1899 130.117 99.1899C130.117 99.1899 123.427 99.3728 121.255 99.0998C119.083 98.8268 117.909 102.013 116.489 101.101C115.069 100.189 118.16 91.3655 119.163 88.8156C120.166 86.2657 117.826 79.8063 117.826 79.8063L120.836 61.6321L121.506 57.5124V44.5609L121.671 44.4981C122.282 44.2389 122.827 43.8253 123.261 43.2914L124.014 56.3248L147.592 57.2367V42.5679" fill="#E7C7CA"/>
<path opacity="0.1" d="M151.219 13.9102C151.076 13.3396 150.878 12.7472 150.466 12.365C150.073 12.058 149.62 11.8559 149.142 11.7753C147.998 11.4478 146.835 11.2052 145.66 11.0491C145.493 10.4428 145.239 9.86894 144.908 9.34821C142.45 5.56977 138.813 2.00701 134.534 1.20164C132.294 0.778475 129.698 1.15796 128.263 3.07994C127.475 4.13648 127.137 5.53701 126.342 6.57444C124.809 8.58925 122.042 8.83768 120.111 10.3966C119.08 11.2156 118.333 12.4032 117.603 13.5553C116.813 14.8029 116 16.1024 115.749 17.5931C115.248 20.5716 117.056 23.4109 117.39 26.4167C118.142 33.1409 111.52 39.1061 112.772 45.7402C113.502 49.6088 116.785 52.3334 120.181 53.7148C121.378 54.2035 122.745 54.6895 123.304 55.9398C123.555 56.4859 123.598 57.1165 123.833 57.668C124.626 59.5081 127.232 59.579 128.632 58.2386C130.031 56.8981 130.473 54.7304 130.638 52.7074C131.311 43.8729 128.06 35.1448 128.439 26.2884C128.551 23.6102 129.244 20.5716 131.449 19.3594C134.416 17.7214 137.985 20.4515 141.251 19.93C142.796 24.0228 143.124 28.5398 142.189 32.846C141.67 35.2021 140.772 37.4872 140.707 39.917C140.609 43.6162 142.442 46.9961 144.028 50.2667C144.368 50.8783 144.595 51.5562 144.697 52.2624C144.722 52.979 144.6 53.6926 144.339 54.3509C143.443 56.9745 141.898 59.4098 141.722 62.2026C141.671 62.5287 141.738 62.8637 141.911 63.1363C142.087 63.3183 142.315 63.4299 142.558 63.453C145.267 63.9581 147.609 61.3454 148.931 58.7218C150.405 55.824 151.264 52.6038 151.444 49.2975C151.718 43.7391 149.887 38.2707 150 32.7068C150.13 26.3812 152.756 20.0119 151.219 13.9102Z" fill="black"/>
<path d="M151.47 13.6372C151.327 13.0666 151.128 12.4742 150.717 12.0919C150.324 11.7849 149.871 11.5829 149.393 11.5022C148.249 11.1748 147.085 10.9322 145.911 10.776C145.743 10.1698 145.49 9.59593 145.159 9.0752C142.701 5.29676 139.064 1.734 134.784 0.928627C132.545 0.505464 129.949 0.884945 128.514 2.80692C127.726 3.86347 127.388 5.264 126.592 6.30143C125.06 8.31624 122.293 8.56467 120.362 10.1236C119.331 10.9426 118.584 12.1302 117.854 13.2823C117.064 14.5299 116.251 15.8294 116 17.3201C115.498 20.2986 117.307 23.1379 117.64 26.1437C118.393 32.8679 111.771 38.8331 113.023 45.4672C113.753 49.3357 117.036 52.0604 120.432 53.4418C121.629 53.9305 122.996 54.4164 123.555 55.6668C123.806 56.2128 123.848 56.8435 124.084 57.395C124.877 59.235 127.483 59.306 128.882 57.9655C130.282 56.6251 130.724 54.4574 130.889 52.4344C131.561 43.5998 128.311 34.8718 128.689 26.0154C128.802 23.3372 129.495 20.2986 131.699 19.0864C134.667 17.4484 138.236 20.1784 141.502 19.657C143.047 23.7498 143.375 28.2668 142.44 32.573C141.921 34.9291 141.023 37.2142 140.957 39.644C140.86 43.3432 142.693 46.7231 144.278 49.9937C144.618 50.6053 144.846 51.2831 144.948 51.9894C144.973 52.706 144.85 53.4195 144.589 54.0779C143.694 56.7015 142.149 59.1367 141.973 61.9296C141.922 62.2556 141.989 62.5906 142.161 62.8633C142.338 63.0453 142.566 63.1569 142.808 63.18C145.517 63.6851 147.86 61.0724 149.182 58.4488C150.656 55.551 151.515 52.3308 151.695 49.0245C151.969 43.4661 150.138 37.9977 150.25 32.4338C150.381 26.1082 153.007 19.7389 151.47 13.6372Z" fill="#3E373A"/>
<path d="M145.929 134.517L155.879 134.864L154.452 126.832L146.829 127.621L145.929 134.517Z" fill="#C3C7D9"/>
<path d="M176.76 115.48C176.091 116.389 173.5 118.027 173.249 118.573C172.998 119.119 169.905 120.757 168.315 121.03C166.725 121.303 161.711 122.488 160.79 123.124C160.131 123.583 154.836 125.035 151.357 125.841C150.414 126.083 149.461 126.27 148.5 126.4C146.995 126.491 130.525 120.394 130.525 120.394L133.701 116.845L133.876 116.78C134.774 116.449 138.923 114.923 141.226 114.197C143.819 113.378 146.829 110.012 146.829 110.012C146.829 110.012 151.259 108.374 151.846 108.191C152.433 108.008 150.341 101.822 150.341 101.822C150.341 101.822 159.955 100.369 163.717 99.1379C167.48 97.9067 176.176 98.3626 177.764 103.187C179.351 108.011 177.44 114.571 176.76 115.48Z" fill="#4B4B5B"/>
<path d="M132.948 130.859C132.948 130.859 131.027 133.043 129.103 132.863C127.179 132.683 120.452 133.409 120.452 133.409C119.233 133.938 118.091 134.658 117.064 135.546C115.491 136.895 114.656 135.819 114.5 135.59L114.472 135.546C113.635 138.416 111.713 136.229 111.713 136.229C111.713 136.229 112.549 127.493 112.293 126.401C112.037 125.309 113.946 123.433 113.946 123.433L116.203 122.808L121.922 121.213L130.117 124.307L132.948 130.859Z" fill="#E7C7CA"/>
<path opacity="0.1" d="M116.193 122.808L114.5 135.59L114.473 135.546C113.635 138.416 111.713 136.229 111.713 136.229C111.713 136.229 112.549 127.493 112.293 126.401C112.037 125.308 113.946 123.433 113.946 123.433L116.193 122.808Z" fill="black"/>
<path opacity="0.1" d="M128.027 86.4486C128.027 86.4486 132.457 88.0865 136.304 86.4486Z" fill="black"/>
<path opacity="0.1" d="M143.15 89.5445C143.15 89.5445 144.988 90.5439 146.41 89.5445Z" fill="black"/>
<path opacity="0.1" d="M143.15 91.9141C143.15 91.9141 146.242 92.3646 146.829 91.4555Z" fill="black"/>
<path opacity="0.1" d="M142.146 97.0058C142.146 97.0058 147.955 96.1868 149.398 95.0948Z" fill="black"/>
<path opacity="0.1" d="M124.42 95.0948C124.42 95.0948 127.681 97.0959 130.107 97.0058Z" fill="black"/>
<path opacity="0.1" d="M151.354 125.841C150.412 126.084 149.458 126.271 148.497 126.401C146.992 126.491 130.523 120.394 130.523 120.394L133.698 116.845L133.874 116.78C134.376 117.165 134.787 117.495 135.08 117.746C136.463 118.931 137.797 117.383 138.299 117.383C138.8 117.383 143.147 121.295 143.147 121.295C143.147 121.295 147.16 122.297 147.83 123.206C148.5 124.116 150.84 123.935 151.256 124.572C151.382 124.768 151.397 125.251 151.354 125.841Z" fill="black"/>
<path d="M120.452 102.193C120.452 102.193 116.394 102.447 114.054 101.374C111.713 100.301 103.938 97.8248 101.68 99.5639C99.4228 101.303 93.9874 102.84 96.4957 109.758C99.004 116.676 100.175 116.856 100.175 116.856C100.951 117.49 101.629 118.255 102.182 119.122C102.934 120.397 109.958 123.307 111.713 123.307C113.469 123.307 116.562 123.307 120.909 126.584C125.256 129.86 129.186 130.225 129.186 130.225C129.186 130.225 134.704 132.683 136.422 133.229C138.141 133.775 145.991 136.139 147.833 135.413C149.674 134.686 150.843 130.133 150.843 130.133C150.843 130.133 151.678 126.038 151.259 125.401C150.84 124.765 148.5 124.945 147.833 124.036C147.165 123.127 143.15 122.125 143.15 122.125C143.15 122.125 138.813 118.21 138.311 118.21C137.809 118.21 136.475 119.756 135.093 118.573C132.34 116.354 129.448 114.347 126.437 112.567C123.261 110.746 120.452 102.193 120.452 102.193Z" fill="#4B4B5B"/>
<path opacity="0.1" d="M112.293 104.833C113.015 104.672 113.762 104.695 114.475 104.9C115.188 105.105 115.848 105.487 116.404 106.015C118.41 107.836 125.163 111.491 125.163 111.491" fill="black"/>
<path opacity="0.1" d="M162.463 104.718C162.463 104.718 153.516 106.192 151.846 108.194Z" fill="black"/>
<path d="M172.747 134.864H172.353C170.939 134.809 166.145 134.645 165.222 134.864C164.136 135.137 149.754 134.864 149.754 134.864L152.566 134.228C152.566 134.228 151.522 130.247 152.184 129.917C152.184 129.917 148.422 127.22 151.259 125.399C154.096 123.578 157.153 124.345 157.153 124.345L164.274 121.718L165.641 121.213C165.641 121.213 173.668 121.669 175.84 127.675C178.012 133.682 172.747 134.864 172.747 134.864Z" fill="#E7C7CA"/>
<path opacity="0.1" d="M172.747 134.864H172.353C174.689 132.767 179.971 126.384 164.274 121.732L165.641 121.227C165.641 121.227 173.668 121.683 175.84 127.689C178.012 133.695 172.747 134.864 172.747 134.864Z" fill="black"/>
<path d="M157.991 127.787C158.233 127.787 158.43 127.574 158.43 127.31C158.43 127.046 158.233 126.832 157.991 126.832C157.749 126.832 157.552 127.046 157.552 127.31C157.552 127.574 157.749 127.787 157.991 127.787Z" fill="#4B4B5B"/>
<path d="M155.44 128.576C155.683 128.576 155.879 128.363 155.879 128.099C155.879 127.835 155.683 127.621 155.44 127.621C155.198 127.621 155.001 127.835 155.001 128.099C155.001 128.363 155.198 128.576 155.44 128.576Z" fill="#4B4B5B"/>
<g opacity="0.1">
<path opacity="0.1" d="M143.012 27.1384C143.109 24.1356 142.618 21.1445 141.572 18.3639C138.311 18.8936 134.739 16.1553 131.77 17.7933C129.572 19.0055 128.882 22.0441 128.76 24.7223C128.729 25.4294 128.724 26.1365 128.737 26.8436C128.737 26.5924 128.737 26.3385 128.76 26.0873C128.875 23.4091 129.565 20.3705 131.77 19.1584C134.739 17.5203 138.306 20.2504 141.572 19.729C142.458 22.0842 142.946 24.5944 143.012 27.1384V27.1384Z" fill="black"/>
<path opacity="0.1" d="M117.743 26.638C117.786 26.0431 117.775 25.4451 117.711 24.8525C117.445 22.45 116.238 20.154 116.02 17.8116C115.739 20.6373 117.392 23.351 117.711 26.2175C117.743 26.365 117.743 26.496 117.743 26.638Z" fill="black"/>
<path opacity="0.1" d="M130.959 51.1377C130.804 53.1634 130.365 55.3283 128.953 56.6715C127.541 58.0148 124.94 57.941 124.155 56.101C123.904 55.5549 123.866 54.9188 123.623 54.3728C123.066 53.1224 121.696 52.6365 120.5 52.1478C117.101 50.7636 113.823 48.0527 113.093 44.1732C113.028 43.8217 112.983 43.4661 112.96 43.1085C112.898 43.9212 112.943 44.7393 113.093 45.5382C113.823 49.4068 117.106 52.1287 120.5 53.5128C121.696 54.0015 123.066 54.4875 123.623 55.7379C123.874 56.2839 123.916 56.9145 124.155 57.466C124.945 59.3061 127.551 59.3771 128.953 58.0366C130.355 56.6961 130.791 54.5284 130.959 52.5027C131.036 51.4365 131.062 50.3667 131.037 49.2976C131.037 49.9173 131.005 50.5288 130.959 51.1377Z" fill="black"/>
<path opacity="0.1" d="M150.333 31.1397C150.333 31.5356 150.333 31.9287 150.333 32.3218C150.474 27.2439 152.184 22.1386 152.016 17.1671C151.886 21.7646 150.429 26.4658 150.333 31.1397Z" fill="black"/>
<path opacity="0.1" d="M144.951 51.6808C145.012 51.3568 145.032 51.025 145.008 50.6952C144.907 49.9887 144.68 49.3106 144.339 48.6995C142.889 45.6964 141.236 42.6223 141.04 39.2889C141.04 39.4309 141.022 39.5619 141.02 39.7148C140.92 43.4113 142.753 46.7939 144.339 50.0646C144.608 50.5711 144.814 51.1147 144.951 51.6808V51.6808Z" fill="black"/>
<path opacity="0.1" d="M151.776 47.7304C151.588 51.0379 150.724 54.258 149.245 57.1546C147.92 59.7782 145.58 62.3909 142.869 61.8858C142.626 61.863 142.397 61.7503 142.222 61.5664C142.171 61.5039 142.131 61.4317 142.104 61.3535C142.074 61.5664 142.048 61.7821 142.033 62.0005C141.982 62.3256 142.049 62.66 142.222 62.9314C142.397 63.1153 142.626 63.2281 142.869 63.2509C145.58 63.7559 147.92 61.1432 149.245 58.5196C150.724 55.623 151.588 52.403 151.776 49.0954C151.806 48.4566 151.808 47.8205 151.791 47.1844C151.786 47.3673 151.786 47.5475 151.776 47.7304Z" fill="black"/>
</g>
<path opacity="0.1" d="M152.184 129.917C152.184 129.917 158.533 132.816 162.719 126.4" stroke="black" stroke-miterlimit="10"/>
<path opacity="0.1" d="M153.433 134.984C153.433 134.984 158.618 131.315 165.222 134.864" stroke="black" stroke-miterlimit="10"/>
<path opacity="0.1" d="M118.729 134.151C118.729 134.151 120.906 128.806 126.72 132.882" stroke="black" stroke-miterlimit="10"/>
<path opacity="0.1" d="M111.671 55.0989L116.11 50.7308C116.11 50.7308 133.325 49.5022 134.037 55.8715C134.037 55.8715 140.14 48.3201 152.974 50.0018L158.405 54.7085L143.395 61.8777L128.81 67.3843L118.067 62.1507L111.671 55.0989Z" fill="black"/>
<path d="M111.671 55.3719L116.11 51.0037C116.11 51.0037 133.325 49.7752 134.037 56.1445C134.037 56.1445 140.14 48.5931 152.974 50.2748L158.405 54.9815L143.395 62.1507L128.81 67.6573L118.067 62.4237L111.671 55.3719Z" fill="#D5D6DB"/>
<path opacity="0.1" d="M109.707 55.9179L111.671 81.4906L132.489 82.6291L131.586 57.1655L131.569 56.7369L109.707 55.9179Z" fill="black"/>
<path d="M109.707 55.3719L111.671 80.9445L132.489 82.083L131.586 56.6195L131.569 56.1909L109.707 55.3719Z" fill="#00BFA6"/>
<path opacity="0.1" d="M159.358 55.3719L137.882 58.8773V84.5647L158.869 81.2641L159.358 55.3719Z" fill="black"/>
<path d="M159.358 54.826L137.882 58.3314V84.0187L158.869 80.718L159.358 54.826Z" fill="#00BFA6"/>
<path opacity="0.3" d="M154.294 61.0944L142.693 62.4977L142.946 66.8003L154.286 65.4516L154.294 61.0944Z" fill="white"/>
<path d="M112.799 94.6387L113.981 98.0978C113.981 98.0978 115.737 99.7358 117.658 98.9168C119.579 98.0978 121.255 97.691 122.09 96.8938C122.925 96.0966 124.097 92.0916 124.097 92.0916C124.097 92.0916 125.268 87.7235 126.437 86.6314C127.606 85.5394 130.701 70.4939 126.437 71.9655C122.173 73.437 118.912 87.0874 118.912 87.0874C118.912 87.0874 118.16 88.0866 117.074 88.1794C115.987 88.2722 113.813 87.9965 113.394 88.9984C112.975 90.0003 111.545 92.6376 112.799 94.6387Z" fill="#BE6F72"/>
<path opacity="0.1" d="M137.882 58.8746C136.783 59.1443 135.64 59.1302 134.547 58.8334C133.453 58.5367 132.438 57.9655 131.584 57.1656L132.489 82.6264C132.489 82.6264 134.621 85.1381 137.882 84.5647V58.8746Z" fill="black"/>
<path d="M137.882 58.3286C136.783 58.5983 135.64 58.5842 134.547 58.2875C133.453 57.9907 132.438 57.4195 131.584 56.6196L132.489 82.0803C132.489 82.0803 134.621 84.5919 137.882 84.0186V58.3286Z" fill="#00BFA6"/>
<path opacity="0.1" d="M137.882 58.3286C136.783 58.5983 135.64 58.5842 134.547 58.2875C133.453 57.9907 132.438 57.4195 131.584 56.6196L132.489 82.0803C132.489 82.0803 134.621 84.5919 137.882 84.0186V58.3286Z" fill="black"/>
<path opacity="0.1" d="M138.384 55.4592C138.384 55.4592 147.12 52.5517 149.398 52.9612Z" fill="black"/>
<path opacity="0.1" d="M128.612 54.19C128.612 54.19 120.144 52.0059 118.729 52.6256Z" fill="black"/>
<path opacity="0.1" d="M143.892 55.8222C143.892 55.8222 149.734 53.4908 151.846 54.5992Z" fill="black"/>
<path opacity="0.1" d="M140.95 114.309C141.855 113.569 142.819 112.918 143.829 112.362C145.334 111.573 148.093 109.526 148.093 109.526" fill="black"/>
<path opacity="0.1" d="M118.729 86.4486C118.729 86.4486 115.064 89.7111 113.963 89.9977C112.862 90.2844 112.182 92.8288 112.182 92.8288" fill="black"/>
<path d="M157.203 94.1528L156.035 97.62C156.035 97.62 154.279 99.2581 152.355 98.439C150.431 97.62 148.761 97.2132 147.923 96.416C147.085 95.6188 145.916 91.6138 145.916 91.6138C145.916 91.6138 144.747 87.2456 143.576 86.1536C142.405 85.0616 139.312 70.016 143.576 71.4876C147.84 72.9591 151.101 86.6095 151.101 86.6095C151.101 86.6095 151.853 87.6088 152.939 87.7016C154.025 87.7944 156.2 87.5187 156.619 88.5206C157.038 89.5225 158.458 92.1598 157.203 94.1528Z" fill="#BE6F72"/>
<path opacity="0.1" d="M155.154 87.7754C155.154 87.7754 157.55 89.4516 157.539 91.4555Z" fill="black"/>
<path d="M134.83 39.1852C141.018 39.1852 146.034 33.7251 146.034 26.9899C146.034 20.2546 141.018 14.7946 134.83 14.7946C128.642 14.7946 123.625 20.2546 123.625 26.9899C123.625 33.7251 128.642 39.1852 134.83 39.1852Z" fill="#BE6F72"/>
<path d="M127.794 23.7166C129.153 23.4846 130.345 22.6246 131.644 22.1304C134.551 21.0193 137.767 21.781 140.709 22.7829C141.838 23.1679 142.984 23.6019 144.168 23.6019C145.352 23.6019 146.608 23.075 147.213 21.9639C147.77 20.9428 147.662 19.616 147.193 18.5431C146.724 17.4702 145.939 16.6075 145.146 15.7939C142.538 13.113 139.302 10.6067 135.723 10.8797C134.283 10.9917 132.906 11.5513 131.581 12.1711C129.914 12.9532 128.291 13.843 126.72 14.8356C125.514 15.5973 123.279 16.6157 122.584 18.008C121.004 21.1449 125.336 24.137 127.794 23.7166Z" fill="#3E373A"/>
<path opacity="0.1" d="M147.213 20.8171C146.608 21.9282 145.352 22.4552 144.168 22.4552C142.984 22.4552 141.838 22.0375 140.706 21.6525C137.764 20.6506 134.551 19.8861 131.642 21C130.345 21.4942 129.151 22.3651 127.791 22.5835C125.81 22.922 122.619 21.0437 122.273 18.6549C121.884 21.415 125.584 23.7792 127.791 23.4025C129.151 23.1704 130.345 22.3105 131.642 21.819C134.551 20.7052 137.764 21.4696 140.706 22.4715C141.838 22.8565 142.981 23.2906 144.168 23.2742C145.354 23.2578 146.608 22.75 147.213 21.6361C147.526 21.0302 147.65 20.3295 147.564 19.6404C147.525 20.0553 147.405 20.4564 147.213 20.8171Z" fill="black"/>
<path d="M238.14 168.774C238.14 168.774 239.628 170.89 237.453 174.087C235.278 177.284 233.487 179.981 234.21 181.974C234.21 181.974 237.491 176.039 240.159 175.954C242.828 175.87 241.072 172.342 238.14 168.774Z" fill="#00BFA6"/>
<path opacity="0.1" d="M238.14 168.774C238.27 168.979 238.372 169.202 238.444 169.438C241.047 172.768 242.437 175.878 239.931 175.954C237.598 176.028 234.802 180.568 234.132 181.712C234.153 181.805 234.179 181.896 234.21 181.985C234.21 181.985 237.491 176.05 240.159 175.965C242.828 175.881 241.072 172.342 238.14 168.774Z" fill="black"/>
<path d="M240.899 171.472C240.899 172.217 240.822 172.82 240.729 172.82C240.636 172.82 240.556 172.217 240.556 171.472C240.556 170.726 240.651 171.078 240.746 171.078C240.842 171.078 240.899 170.726 240.899 171.472Z" fill="#FFD037"/>
<path d="M241.85 172.361C241.251 172.716 240.726 172.932 240.681 172.842C240.636 172.752 241.085 172.389 241.685 172.023C242.284 171.657 242.048 171.925 242.093 172.023C242.139 172.121 242.452 172.004 241.85 172.361Z" fill="#FFD037"/>
<path d="M230.279 168.774C230.279 168.774 228.792 170.89 230.967 174.087C233.141 177.284 234.932 179.981 234.207 181.974C234.207 181.974 230.929 176.039 228.258 175.954C225.586 175.87 227.355 172.342 230.279 168.774Z" fill="#00BFA6"/>
<path opacity="0.1" d="M230.279 168.774C230.15 168.979 230.048 169.202 229.976 169.438C227.372 172.768 225.983 175.878 228.488 175.954C230.819 176.028 233.618 180.568 234.288 181.712C234.267 181.805 234.24 181.896 234.207 181.985C234.207 181.985 230.929 176.05 228.258 175.965C225.586 175.881 227.355 172.342 230.279 168.774Z" fill="black"/>
<path d="M227.515 171.472C227.515 172.217 227.591 172.82 227.686 172.82C227.781 172.82 227.859 172.217 227.859 171.472C227.859 170.726 227.761 171.078 227.668 171.078C227.576 171.078 227.515 170.726 227.515 171.472Z" fill="#FFD037"/>
<path d="M226.567 172.361C227.167 172.716 227.691 172.932 227.736 172.842C227.781 172.752 227.332 172.389 226.733 172.023C226.133 171.657 226.369 171.925 226.324 172.023C226.279 172.121 225.965 172.004 226.567 172.361Z" fill="#FFD037"/>
<path opacity="0.1" d="M234.21 198.169C242.799 198.169 249.761 197.007 249.761 195.573C249.761 194.139 242.799 192.976 234.21 192.976C225.621 192.976 218.659 194.139 218.659 195.573C218.659 197.007 225.621 198.169 234.21 198.169Z" fill="#00BFA6"/>
<path d="M242.214 179.121L242.139 179.782L242.033 180.716L241.991 181.106L241.885 182.04L241.84 182.43L241.737 183.361L240.546 193.981C240.44 194.928 239.018 195.668 237.3 195.668H231.117C229.399 195.668 227.979 194.928 227.871 193.981L226.68 183.361L226.575 182.43L226.532 182.04L226.427 181.106L226.382 180.716L226.279 179.782L226.203 179.121C226.146 178.575 226.913 178.133 227.887 178.133H240.533C241.504 178.133 242.274 178.583 242.214 179.121Z" fill="#65617D"/>
<path d="M242.139 179.782L242.036 180.716H226.384L226.279 179.782H242.139Z" fill="#9D9CB5"/>
<path d="M241.99 181.106L241.888 182.04H226.532L226.427 181.106H241.99Z" fill="#9D9CB5"/>
<path d="M241.843 182.43L241.737 183.364H226.68L226.577 182.43H241.843Z" fill="#9D9CB5"/>
<defs>
<linearGradient id="paint0_linear" x1="137.112" y1="137.026" x2="137.112" y2="-0.0020277" gradientUnits="userSpaceOnUse">
<stop stop-color="#808080" stop-opacity="0.25"/>
<stop offset="0.54" stop-color="#808080" stop-opacity="0.12"/>
<stop offset="1" stop-color="#808080" stop-opacity="0.1"/>
</linearGradient>
</defs>
</svg>
