<svg width="314" height="383" viewBox="0 0 314 383" fill="none" xmlns="http://www.w3.org/2000/svg">
<path fill-rule="evenodd" clip-rule="evenodd" d="M314 3.05176e-05H102.074L63.4808 3.8147e-05L57.6845 7.0217C51.8882 14.0434 40.2956 28.4059 42.2277 42.4492C43.1301 49.1577 46.9833 55.7967 50.8338 62.431C55.2269 70.0003 59.6166 77.5636 59.6166 85.2175C59.6166 93.2572 54.5507 101.402 49.4941 109.531C45.7182 115.601 41.9475 121.663 40.2955 127.667C36.4313 141.71 44.1598 156.073 51.8882 170.116C51.9994 170.323 52.1106 170.529 52.2218 170.736C59.8367 184.883 67.2894 198.728 63.4808 212.884C60.1019 225.164 47.8591 237.688 35.795 250.029C34.0624 251.801 32.3335 253.57 30.635 255.333C17.1103 269.377 5.51762 283.739 1.65341 297.783C-1.42564 309.227 0.402153 320.468 2.2495 331.83C2.72058 334.727 3.19293 337.633 3.58552 340.551C5.51762 354.594 5.51762 368.957 5.51762 375.978V383H102.074H109.851H314V3.05176e-05Z" fill="url(#paint0_linear)"/>
<defs>
<linearGradient id="paint0_linear" x1="314" y1="173" x2="47.5" y2="173" gradientUnits="userSpaceOnUse">
<stop stop-color="#39B0FF"/>
<stop offset="0.770833" stop-color="#0099FF"/>
</linearGradient>
</defs>
</svg>
